<?xml version="1.0" standalone="no"?>
<!DOCTYPE svg PUBLIC "-//W3C//DTD SVG 20010904//EN"
 "http://www.w3.org/TR/2001/REC-SVG-20010904/DTD/svg10.dtd">
<svg version="1.0" xmlns="http://www.w3.org/2000/svg"
 width="960.000000pt" height="540.000000pt" viewBox="0 0 960.000000 540.000000"
 preserveAspectRatio="xMidYMid meet">

<g transform="translate(0.000000,540.000000) scale(0.100000,-0.100000)"
fill="#000000" stroke="none">
<path d="M0 2700 l0 -2700 4800 0 4800 0 0 2700 0 2700 -4800 0 -4800 0 0
-2700z m4871 2333 c138 -143 272 -364 369 -609 73 -184 127 -444 139 -668 l6
-129 112 -42 c130 -50 210 -93 311 -168 322 -242 537 -589 642 -1035 28 -115
28 -112 -28 -112 l-48 0 -12 67 c-19 111 -91 318 -156 451 -161 326 -421 576
-726 694 -116 46 -104 52 -123 -62 -18 -107 -60 -245 -104 -338 -43 -93 -150
-279 -203 -356 -261 -377 -629 -581 -940 -521 -47 9 -94 16 -105 16 -16 0 -17
2 -5 9 12 8 11 11 -7 16 -25 7 -31 23 -10 25 42 4 119 -2 161 -12 56 -13 194
-6 271 15 104 28 313 145 299 168 -3 4 1 5 9 2 18 -6 189 167 267 271 103 138
150 240 150 330 0 50 -19 118 -60 215 -134 315 -210 533 -239 680 -17 88 -31
265 -31 405 -1 101 -3 126 -12 111 -15 -26 -4 -439 16 -571 37 -250 140 -584
242 -787 13 -26 20 -49 16 -52 -14 -8 -145 65 -214 120 -36 29 -83 75 -105
101 -21 26 -46 57 -55 67 -30 33 -104 186 -132 271 -36 110 -47 203 -47 390 0
157 8 225 50 460 19 105 72 304 105 390 45 121 113 245 134 245 4 0 33 -26 63
-57z m-970 -1173 c135 -27 292 -81 400 -136 253 -130 380 -339 396 -651 7
-125 0 -138 -38 -75 -72 117 -222 291 -340 393 -104 90 -176 138 -305 202
-205 103 -188 80 41 -54 149 -87 276 -214 456 -454 120 -162 138 -181 177
-195 28 -10 41 -19 37 -28 -3 -8 -5 -19 -5 -26 0 -22 -137 -40 -258 -33 -88 5
-123 12 -198 40 -81 30 -201 95 -245 133 -13 12 -22 4 -67 -65 -95 -145 -186
-359 -236 -556 l-23 -90 -48 -3 c-26 -2 -53 2 -58 7 -8 8 -8 11 0 11 5 0 13
21 17 47 22 163 158 488 278 666 l40 59 -64 66 c-187 197 -322 426 -388 663
-10 36 -15 71 -11 77 22 36 268 37 442 2z m2379 -1435 c0 -5 -5 -3 -10 5 -5 8
-10 20 -10 25 0 6 5 3 10 -5 5 -8 10 -19 10 -25z m-1216 -95 c15 -15 53 -12
60 6 9 22 24 8 19 -18 -2 -13 -9 -75 -16 -138 -9 -85 -16 -115 -27 -115 -9 0
-14 16 -15 55 -5 115 -37 174 -95 172 -48 -1 -63 -10 -97 -55 -69 -92 -116
-274 -117 -457 -1 -141 19 -217 70 -268 30 -30 39 -34 71 -29 47 8 95 55 128
125 19 40 29 52 37 44 25 -25 -78 -188 -135 -215 -100 -48 -187 5 -230 138
-50 155 -44 313 20 497 45 129 118 233 188 265 33 15 121 11 139 -7z m-2267
-185 c6 -99 17 -232 23 -295 6 -63 12 -141 13 -172 1 -32 4 -58 7 -58 6 0 31
80 30 94 -1 5 2 12 7 15 5 3 22 38 37 76 16 39 32 79 37 90 4 11 20 52 35 90
14 39 32 84 39 100 44 100 55 129 55 137 0 5 9 27 19 48 l19 40 -31 1 c-22 1
-15 4 23 11 77 12 145 7 145 -12 0 -8 -9 -16 -20 -18 -34 -7 -44 -21 -59 -95
-33 -151 -117 -710 -112 -733 4 -14 18 -29 31 -34 14 -5 25 -14 25 -19 0 -15
-40 -21 -138 -21 -86 0 -92 1 -83 18 5 10 19 18 32 19 12 1 26 8 30 15 16 25
59 253 62 330 1 27 5 41 10 35 5 -7 6 2 3 20 -3 18 -1 35 4 38 6 4 8 10 6 14
-3 4 -1 25 4 47 4 21 11 59 14 84 l6 45 -21 -50 c-48 -114 -68 -163 -85 -210
-9 -27 -23 -57 -29 -65 -7 -8 -40 -88 -75 -177 -45 -117 -68 -163 -79 -163
-12 0 -16 11 -18 43 -5 153 -16 268 -24 256 -6 -10 -9 -8 -9 9 0 12 4 22 8 22
4 0 5 33 1 73 -4 39 -8 102 -8 140 -1 37 -4 67 -9 67 -4 0 -15 -53 -25 -117
-10 -65 -24 -140 -32 -168 -19 -71 -38 -214 -34 -255 3 -30 8 -35 32 -38 29
-4 37 -26 11 -36 -9 -3 -51 -6 -95 -6 -62 0 -79 3 -79 14 0 8 15 20 34 26 30
9 36 17 45 58 6 26 13 61 15 77 3 17 12 74 20 129 9 54 13 102 10 107 -3 5 0
9 5 9 6 0 11 10 11 23 0 12 16 114 34 226 30 172 33 206 21 217 -7 8 -21 14
-30 14 -21 0 -31 30 -14 41 8 5 41 8 74 7 l60 -3 12 -180z m1703 181 c0 -2 -7
-7 -16 -10 -8 -3 -12 -2 -9 4 6 10 25 14 25 6z m-45 -26 c-3 -5 -11 -10 -16
-10 -6 0 -7 5 -4 10 3 6 11 10 16 10 6 0 7 -4 4 -10z m2200 -180 l-12 -80 23
0 c13 0 27 -7 32 -15 7 -14 12 -14 38 -1 50 24 84 28 84 12 0 -14 -26 -216
-50 -396 -5 -36 -9 -71 -10 -77 0 -26 16 -12 35 30 16 35 20 39 23 20 4 -28
-45 -121 -71 -135 -15 -7 -23 -6 -35 6 -14 14 -14 28 2 153 10 76 19 149 21
163 2 14 7 60 10 103 6 62 5 77 -6 77 -8 0 -25 3 -38 7 -18 4 -22 3 -17 -6 6
-9 3 -9 -13 1 -13 8 -24 9 -29 3 -9 -10 -50 -281 -59 -387 -8 -84 11 -77 41
16 5 14 10 16 18 8 13 -13 -2 -58 -40 -115 -20 -30 -31 -37 -51 -35 -23 3 -26
8 -29 50 -2 27 8 126 23 220 38 258 37 238 14 238 -34 0 -35 30 -2 55 27 22
42 48 73 133 7 17 18 32 25 32 9 0 9 -18 0 -80z m-1954 27 c-10 -9 -11 -8 -5
6 3 10 9 15 12 12 3 -3 0 -11 -7 -18z m316 -19 c-3 -8 -6 -5 -6 6 -1 11 2 17
5 13 3 -3 4 -12 1 -19z m30 -54 c-3 -3 -12 -4 -19 -1 -8 3 -5 6 6 6 11 1 17
-2 13 -5z m-2440 -26 c-3 -8 -6 -5 -6 6 -1 11 2 17 5 13 3 -3 4 -12 1 -19z
m4696 -2 c15 -8 27 -11 27 -5 0 5 7 9 16 9 12 0 14 -8 10 -45 -3 -25 -9 -65
-12 -90 -7 -59 -20 -57 -29 5 -4 28 -15 60 -25 72 -15 19 -20 20 -34 9 -28
-23 -18 -87 32 -211 36 -90 37 -198 3 -253 -28 -46 -54 -57 -99 -45 -23 7 -38
6 -48 -3 -12 -10 -14 -5 -14 28 0 68 12 163 21 163 5 0 9 -19 9 -42 0 -89 58
-148 94 -96 23 32 20 77 -10 155 -60 160 -66 182 -60 238 6 67 29 112 58 118
13 2 25 5 28 6 3 0 17 -6 33 -13z m-823 -22 c20 -20 18 -119 -4 -162 -37 -71
-123 -142 -172 -142 -14 0 -16 -10 -12 -70 3 -60 8 -74 30 -97 24 -23 30 -25
52 -15 14 6 37 29 52 52 39 59 61 52 29 -10 -32 -62 -101 -120 -143 -120 -69
0 -108 170 -73 314 5 22 7 44 5 48 -3 5 1 19 9 31 7 12 17 33 20 47 11 43 69
122 101 136 35 16 84 11 106 -12z m627 -1 c18 -27 21 -79 9 -127 -5 -19 -13
-26 -31 -26 -20 0 -24 6 -27 33 -2 17 3 43 9 57 19 37 16 50 -10 50 -56 0
-115 -127 -132 -285 -7 -66 7 -149 30 -171 30 -30 78 -6 110 56 16 31 35 40
35 17 0 -18 -57 -106 -83 -128 -29 -24 -89 -25 -109 -1 -26 29 -38 82 -38 164
0 210 83 388 181 388 31 0 42 -5 56 -27z m-1736 6 c36 -19 69 -106 69 -182 0
-160 -35 -281 -101 -352 -77 -82 -140 -81 -180 2 -44 89 -28 286 33 406 16 32
17 41 7 55 -11 14 -11 15 0 5 10 -9 20 -4 44 24 44 50 87 64 128 42z m289 -1
c17 -11 22 -10 30 2 5 8 12 11 16 7 7 -7 -10 -184 -19 -193 -15 -15 -27 12
-27 58 0 75 -44 116 -71 67 -15 -30 -5 -84 37 -191 19 -50 38 -113 41 -139 10
-86 -30 -176 -87 -194 -11 -4 -37 -1 -57 6 -28 9 -38 9 -41 0 -2 -6 -10 -11
-18 -11 -10 0 -13 8 -10 25 3 13 8 61 12 105 3 44 10 80 14 80 4 0 12 -30 18
-66 12 -72 33 -104 67 -104 33 0 49 39 42 105 -3 31 -10 62 -15 68 -23 31 -72
180 -72 219 0 72 11 117 36 143 26 28 71 33 104 13z m216 -28 c-3 -22 -8 -59
-11 -82 l-5 -43 15 39 c17 45 54 108 69 118 17 12 46 9 61 -6 17 -17 20 -52
12 -126 l-7 -55 23 60 c35 96 63 135 97 135 26 0 30 -5 36 -37 7 -37 -5 -173
-32 -357 -8 -54 -13 -101 -10 -103 2 -3 15 15 27 39 19 35 24 39 27 22 4 -24
-46 -123 -70 -137 -8 -6 -23 -7 -32 -4 -18 7 -22 84 -6 152 5 22 14 87 19 145
6 58 14 124 17 148 5 35 4 41 -8 37 -32 -12 -94 -189 -131 -372 -20 -99 -31
-117 -62 -106 -7 2 -4 58 11 166 33 254 38 318 20 311 -28 -11 -105 -233 -126
-364 -19 -122 -18 -120 -44 -120 -12 0 -25 2 -28 5 -3 3 1 36 8 73 7 37 20
130 28 207 9 77 19 159 22 183 6 40 5 42 -19 42 -14 0 -29 5 -32 10 -3 6 -1
10 5 10 7 0 9 7 6 16 -3 8 -2 13 3 10 5 -3 26 1 47 8 68 25 77 22 70 -24z
m-1462 8 c22 -31 20 -82 -10 -278 -14 -94 -24 -185 -22 -202 l4 -33 17 38 c10
20 22 37 27 37 15 0 12 -17 -11 -63 -34 -66 -59 -97 -79 -97 -32 0 -42 33 -31
102 6 35 12 83 15 108 3 25 12 92 20 150 9 58 16 121 16 140 l0 35 -26 -31
c-29 -35 -86 -162 -110 -243 -9 -30 -23 -98 -32 -150 l-17 -96 -33 -3 c-30 -3
-32 -1 -28 22 4 22 22 135 32 206 2 14 8 52 13 85 6 33 13 98 17 144 l7 84
-26 -7 c-21 -5 -27 -3 -27 9 0 9 7 18 15 21 8 4 13 9 11 13 -3 4 3 8 12 9 9 1
38 5 64 8 l46 6 -8 -39 c-5 -21 -11 -56 -14 -78 -2 -22 -7 -56 -11 -75 -4 -28
-2 -25 13 15 30 82 50 121 78 154 30 37 57 40 78 9z m2736 12 c0 -5 -5 -10
-11 -10 -5 0 -7 5 -4 10 3 6 8 10 11 10 2 0 4 -4 4 -10z m-3689 -22 c15 -16
20 -18 16 -7 -4 13 2 18 25 23 16 3 34 3 39 0 12 -7 12 -40 0 -62 -10 -18 -58
-317 -67 -419 -3 -35 -2 -63 3 -63 4 0 16 19 26 42 24 59 43 38 21 -25 -18
-52 -63 -97 -99 -97 -28 0 -37 28 -28 85 l6 40 -34 -50 c-95 -138 -174 -96
-174 93 0 52 3 96 7 98 4 3 10 25 14 50 4 26 17 75 29 109 13 35 20 67 17 71
-4 4 -2 4 4 1 7 -4 17 5 24 23 6 16 29 47 51 69 45 48 85 54 120 19z m253 -3
c13 -20 33 -95 36 -134 1 -3 8 14 16 38 9 25 27 62 40 83 20 32 30 39 52 36
16 -2 31 -12 39 -28 17 -35 -4 -65 -47 -66 -39 0 -54 -19 -77 -91 -15 -47 -15
-65 -4 -156 7 -56 18 -124 25 -151 l13 -50 24 48 c28 57 39 66 39 31 0 -49
-68 -155 -99 -155 -25 0 -32 18 -50 124 l-16 88 -28 -73 c-30 -77 -79 -149
-102 -149 -22 0 -45 30 -45 58 1 31 21 62 40 62 7 0 19 -8 26 -17 19 -25 26
-12 69 118 26 80 32 114 26 135 -4 16 -9 50 -9 75 -3 75 -40 144 -73 137 -8
-2 -14 7 -14 24 -1 15 2 25 5 23 4 -2 20 0 36 5 47 14 61 11 78 -15z m353 -12
c-39 -243 -58 -380 -63 -438 l-5 -70 25 40 c14 22 27 44 29 49 2 5 8 6 14 3
30 -19 -66 -167 -108 -167 -21 0 -38 33 -34 65 2 11 6 47 10 80 3 33 15 121
25 195 29 195 29 195 20 209 -4 8 -16 11 -29 6 -24 -7 -30 15 -8 33 15 13 74
30 106 31 22 1 23 -2 18 -36z m256 30 c-7 -2 -19 -2 -25 0 -7 3 -2 5 12 5 14
0 19 -2 13 -5z m2597 3 c0 -2 -8 -10 -17 -17 -16 -13 -17 -12 -4 4 13 16 21
21 21 13z m-3573 -12 c-3 -3 -12 -4 -19 -1 -8 3 -5 6 6 6 11 1 17 -2 13 -5z
m1280 -116 c-3 -8 -6 -5 -6 6 -1 11 2 17 5 13 3 -3 4 -12 1 -19z m-1760 -80
c-3 -7 -5 -2 -5 12 0 14 2 19 5 13 2 -7 2 -19 0 -25z m1040 0 c-3 -8 -6 -5 -6
6 -1 11 2 17 5 13 3 -3 4 -12 1 -19z m1174 -11 c-10 -9 -11 -8 -5 6 3 10 9 15
12 12 3 -3 0 -11 -7 -18z m-464 -54 c-2 -16 -4 -5 -4 22 0 28 2 40 4 28 2 -13
2 -35 0 -50z m-725 -25 c-8 -8 -9 -4 -5 13 4 13 8 18 11 10 2 -7 -1 -18 -6
-23z m-1365 -160 c-3 -8 -6 -5 -6 6 -1 11 2 17 5 13 3 -3 4 -12 1 -19z m3848
-355 c-91 -253 -223 -461 -410 -649 -177 -178 -348 -289 -543 -354 -702 -234
-1408 152 -1730 947 l-29 71 49 4 c59 4 60 3 78 -42 28 -75 122 -254 169 -324
205 -304 467 -497 790 -584 85 -22 115 -25 266 -25 234 0 372 33 568 136 131
69 212 131 332 252 158 159 274 336 356 545 23 58 43 108 46 113 2 4 24 7 48
7 l45 0 -35 -97z"/>
<path d="M6381 1986 c-7 -8 -10 -20 -6 -25 3 -6 0 -8 -8 -5 -18 7 -44 -47 -58
-121 -16 -86 -11 -92 38 -56 55 40 76 82 77 156 1 47 -2 60 -15 63 -9 1 -21
-4 -28 -12z"/>
<path d="M5288 1963 c-42 -44 -78 -184 -85 -323 -4 -110 -3 -116 19 -143 16
-20 28 -26 41 -21 21 8 61 84 72 134 4 19 13 55 21 79 10 28 14 80 13 147 -2
145 -27 184 -81 127z"/>
<path d="M3372 1940 c-49 -49 -102 -233 -102 -353 0 -74 7 -104 26 -111 37
-14 65 29 115 174 27 80 32 110 32 185 0 85 -12 135 -33 135 -4 0 -22 -13 -38
-30z"/>
</g>
</svg>
